<svg width="119" height="119" viewBox="0 0 119 119" fill="none" xmlns="http://www.w3.org/2000/svg">
<circle cx="59.1086" cy="59.1086" r="59.1086" fill="#D3CAFF"/>
<circle cx="42.4843" cy="81.2743" r="29.5543" fill="#FBFBFB"/>
<path d="M47.4259 100.509C46.2525 100.615 45.2925 100.429 44.5459 99.9487C43.7992 99.522 43.2925 98.962 43.0259 98.2687C42.7059 97.5753 42.5992 96.8553 42.7059 96.1087C42.8125 95.362 43.1325 94.6953 43.6659 94.1087C44.1459 93.5753 44.8125 93.282 45.6659 93.2287C48.0659 93.0153 49.7992 92.322 50.8659 91.1487C51.9859 90.0287 52.5459 88.2953 52.5459 85.9487V50.6687C52.5459 49.0153 52.9725 47.762 53.8259 46.9087C54.7325 46.0553 55.9859 45.6287 57.5859 45.6287C59.1859 45.6287 60.4125 46.0553 61.2659 46.9087C62.1192 47.762 62.5459 49.0153 62.5459 50.6687V85.0687C62.5459 88.482 61.9859 91.282 60.8659 93.4687C59.7992 95.6553 58.1459 97.3087 55.9059 98.4287C53.7192 99.5487 50.8925 100.242 47.4259 100.509ZM57.5059 38.2687C55.6392 38.2687 54.1725 37.8153 53.1059 36.9087C52.0925 35.9487 51.5859 34.642 51.5859 32.9887C51.5859 31.282 52.0925 29.9753 53.1059 29.0687C54.1725 28.162 55.6392 27.7087 57.5059 27.7087C59.4259 27.7087 60.8925 28.162 61.9059 29.0687C62.9192 29.9753 63.4259 31.282 63.4259 32.9887C63.4259 34.642 62.9192 35.9487 61.9059 36.9087C60.8925 37.8153 59.4259 38.2687 57.5059 38.2687Z" fill="#141414"/>
</svg>
